<?xml version="1.0" encoding="UTF-8" standalone="no"?> <svg xmlns="http://www.w3.org/2000/svg" xmlns:xlink="http://www.w3.org/1999/xlink" xmlns:serif="http://www.serif.com/" width="100%" height="100%" viewBox="0 0 150 60" version="1.1" xml:space="preserve" style="fill-rule:evenodd;clip-rule:evenodd;stroke-linejoin:round;stroke-miterlimit:2;"> <g transform="matrix(7.49564,0,0,7.49564,-161.053,-95.4225)"> <g transform="matrix(12,0,0,12,21.5317,19.4747)"> <path d="M0.723,-0.491L0.596,-0.174L0.445,-0.502L0.409,-0.502L0.26,-0.17L0.131,-0.491L0.019,-0.491L0.237,0.011L0.273,0.011L0.427,-0.316L0.581,0.011L0.617,0.011L0.835,-0.491L0.723,-0.491Z" style="fill-rule:nonzero;"></path> </g> <g transform="matrix(12,0,0,12,31.7797,19.4747)"> <path d="M0.526,-0.277C0.526,-0.406 0.43,-0.502 0.299,-0.502C0.156,-0.502 0.045,-0.389 0.045,-0.245C0.045,-0.1 0.157,0.011 0.309,0.011C0.387,0.011 0.453,-0.019 0.505,-0.068L0.455,-0.14C0.414,-0.104 0.369,-0.082 0.312,-0.082C0.228,-0.082 0.166,-0.13 0.152,-0.211L0.518,-0.211C0.521,-0.224 0.526,-0.25 0.526,-0.277ZM0.295,-0.413C0.362,-0.413 0.419,-0.37 0.421,-0.293L0.154,-0.293C0.17,-0.366 0.226,-0.413 0.295,-0.413Z" style="fill-rule:nonzero;"></path> </g> <g transform="matrix(12,0,0,12,38.6197,19.4747)"> <path d="M0.141,0.011C0.184,0.011 0.218,-0.021 0.218,-0.066C0.218,-0.111 0.184,-0.144 0.141,-0.144C0.097,-0.144 0.062,-0.111 0.062,-0.066C0.062,-0.021 0.097,0.011 0.141,0.011Z" style="fill-rule:nonzero;"></path> </g> </g> </svg> 